<svg id="Layer_1" data-name="Layer 1" xmlns="http://www.w3.org/2000/svg" viewBox="0 0 921.47 166.91"><defs><style>.cls-1{fill:#fff;}</style></defs><title>logo-extended</title><path class="cls-1" d="M43.15,135.06H0V0H12V124.45H43.15Z"/><path class="cls-1" d="M105.12,125.31q0,9.75-9.67,9.75H67.83q-9.66,0-9.66-9.75V60.84q0-9.75,9.66-9.75H95.45q9.66,0,9.67,9.75V91.05l-3.89,4.06H69.3v30.37H94V110.12h11.14ZM94,86V60.67H69.3V86Z"/><path class="cls-1" d="M171.57,135.06H160.26v-2.33q-6.81,1-13.63,1.82a117.14,117.14,0,0,1-13.55,1q-9.41,0-9.41-9.32V95.62q0-9.66,9.75-9.66h27V60.67H135.75V75H124.62V60.84q0-9.75,9.67-9.75H161.9q9.67,0,9.67,9.75Zm-11.13-10.44V94.93H134.8v30.21Z"/><path class="cls-1" d="M234.31,78.71H223V61.36l-21.15.69v73H190.38v-84h11.48v2.33q5.7-.86,11.48-1.81a80.14,80.14,0,0,1,11.48-1q9.5,0,9.49,9.41Z"/><path class="cls-1" d="M297.14,135.06H285.66V61.36l-25.29.69v73H248.9v-84h11.47v2.33q6.74-.86,13.55-1.81a114.43,114.43,0,0,1,13.64-1q9.58,0,9.58,9.41Z"/><path class="cls-1" d="M327.86,32.71H316.21V18.21h11.65Zm-.17,102.35H316.38v-84h11.31Z"/><path class="cls-1" d="M395.44,135.06H384V61.36l-25.29.69v73H347.19v-84h11.48v2.33q6.74-.86,13.55-1.81a114.43,114.43,0,0,1,13.64-1q9.57,0,9.58,9.41Z"/><path class="cls-1" d="M461.72,157.16q0,9.75-9.75,9.75H424.69q-9.92,0-9.92-12.34c0-1,0-2.43.13-4.36s.13-3.32.13-4.19h11.3v11.14h24v-22.1h-18.9a17.27,17.27,0,0,1-12.78-5.13,17.59,17.59,0,0,1-5.09-12.9V67.92a17.75,17.75,0,0,1,4.49-12.38,15.17,15.17,0,0,1,11.82-5q2,0,20.46,2.85V51.09h11.39ZM450.33,125V61.53q-13.65-.86-15.88-.86-9.49,0-9.5,9.67v45q0,9.66,9.5,9.67Z"/><path class="cls-1" d="M689.06,125.48a9.2,9.2,0,0,1-2.76,6.91,9.68,9.68,0,0,1-7,2.67H644.53a9.15,9.15,0,0,1-9.58-9.58V9.58a9.34,9.34,0,0,1,2.67-6.9A9.33,9.33,0,0,1,644.53,0h34.78a9.64,9.64,0,0,1,7,2.68,9.17,9.17,0,0,1,2.76,6.9V41H677V10.62h-30V124.45h30V91.22h12.08Z"/><path class="cls-1" d="M756.89,135.06H745.41V61.36l-25.28.69v73H708.65V0h11.48V53.42l13.63-1.72a111.73,111.73,0,0,1,13.55-1.13q9.59,0,9.58,9.41Z"/><path class="cls-1" d="M822.91,135.06h-11.3v-2.33q-6.83,1-13.64,1.82a117,117,0,0,1-13.55,1q-9.4,0-9.4-9.32V95.62Q775,86,784.77,86h27V60.67H787.1V75H776V60.84q0-9.75,9.66-9.75h27.62q9.66,0,9.66,9.75Zm-11.13-10.44V94.93H786.15v30.21Z"/><path class="cls-1" d="M853.9,32.71H842.25V18.21H853.9Zm-.18,102.35h-11.3v-84h11.3Z"/><path class="cls-1" d="M921.47,135.06H910V61.36l-25.28.69v73H873.23v-84h11.48v2.33q6.72-.86,13.55-1.81a114.14,114.14,0,0,1,13.63-1q9.58,0,9.58,9.41Z"/><path class="cls-1" d="M495.46,108.45a8.39,8.39,0,0,1-6.3-2.52,8.77,8.77,0,0,1-2.44-6.37V67.12a8.37,8.37,0,0,1,2.44-6.26,8.58,8.58,0,0,1,6.3-2.41h40.16a8.74,8.74,0,0,1,7.87,4l7.72,12,7.24-11.65q2.52-4,7.95-4h34.81A8.36,8.36,0,0,1,610,67.51V99.4a8.36,8.36,0,0,1-8.74,8.74H566.4q-5.43,0-7.95-4.09l-7.24-11.58-7.72,11.73a8.83,8.83,0,0,1-7.87,4.25Zm.94-11h40.79l9.21-14-9.21-14H496.4Zm68.51-.31h35.35V69.71H564.91l-9.14,13.71Z"/></svg>